<?xml version="1.0" standalone="no"?>
<!DOCTYPE svg PUBLIC "-//W3C//DTD SVG 20010904//EN"
 "http://www.w3.org/TR/2001/REC-SVG-20010904/DTD/svg10.dtd">
<svg version="1.0" xmlns="http://www.w3.org/2000/svg"
 width="859.000000pt" height="793.000000pt" viewBox="0 0 859.000000 793.000000"
 preserveAspectRatio="xMidYMid meet">

<g transform="translate(0.000000,793.000000) scale(0.100000,-0.100000)"
fill="#000000" stroke="none">
<path d="M3830 7580 c-312 -28 -684 -122 -995 -251 -84 -35 -351 -167 -445
-220 -221 -125 -531 -356 -719 -535 -134 -127 -428 -481 -527 -635 -46 -73
-227 -427 -297 -584 -35 -78 -130 -355 -160 -465 -23 -83 -54 -235 -67 -325
-6 -44 -15 -100 -20 -125 -5 -25 -14 -129 -21 -232 -21 -321 15 -695 98 -1018
30 -115 77 -260 103 -317 11 -24 20 -47 20 -53 0 -40 241 -540 317 -657 196
-305 532 -691 794 -912 436 -367 964 -635 1499 -760 285 -67 497 -91 806 -91
285 0 454 16 696 65 290 58 402 90 615 176 212 85 400 186 636 343 359 238
487 352 768 686 116 138 299 392 299 415 0 3 20 38 45 79 55 91 99 180 160
321 26 61 55 128 65 150 56 125 157 444 179 565 5 25 18 90 29 145 72 350 81
845 22 1190 -101 589 -229 936 -503 1370 -208 327 -507 651 -846 914 -203 157
-562 370 -810 480 -218 97 -595 209 -806 241 -38 6 -113 17 -165 26 -112 18
-623 27 -770 14z m520 -290 c203 -12 306 -24 445 -52 371 -73 706 -204 1080
-423 256 -149 594 -431 786 -655 100 -117 224 -273 280 -355 182 -262 354
-631 428 -915 5 -19 14 -53 20 -75 109 -417 135 -887 70 -1297 -6 -38 -15 -71
-21 -74 -14 -9 -231 -5 -378 6 -69 5 -249 15 -400 20 -262 11 -430 18 -905 40
-115 6 -325 14 -465 20 -140 5 -334 14 -430 20 -96 6 -283 15 -415 20 -132 6
-341 15 -465 20 -334 14 -907 39 -1140 50 -379 18 -414 19 -695 30 -154 6
-323 13 -375 15 -52 3 -207 10 -345 16 -468 19 -534 24 -547 37 -9 9 -12 74
-13 255 0 224 6 310 35 487 5 30 14 87 20 125 20 127 85 374 139 530 79 225
262 584 371 725 15 19 54 71 86 115 189 259 496 549 799 757 240 165 529 313
746 381 365 115 469 137 849 175 125 13 244 13 440 2z m390 -4000 c254 -14
571 -29 845 -40 132 -6 330 -15 440 -20 249 -13 495 -24 970 -45 259 -11 373
-19 382 -28 20 -21 -59 -294 -138 -477 -53 -123 -181 -373 -239 -470 -130
-216 -263 -385 -456 -582 -267 -272 -558 -480 -919 -656 -252 -123 -573 -227
-845 -273 -158 -27 -393 -47 -477 -40 -10 1 -13 272 -13 1319 0 725 3 1322 8
1326 7 8 90 5 442 -14z"/>
</g>
</svg>
