<?xml version="1.0" standalone="no"?>
<!DOCTYPE svg PUBLIC "-//W3C//DTD SVG 20010904//EN"
 "http://www.w3.org/TR/2001/REC-SVG-20010904/DTD/svg10.dtd">
<svg version="1.0" xmlns="http://www.w3.org/2000/svg"
 width="1152.000000pt" height="720.000000pt" viewBox="0 0 1152.000000 720.000000"
 preserveAspectRatio="xMidYMid meet">

<g transform="translate(0.000000,720.000000) scale(0.100000,-0.100000)"
fill="#000000" stroke="none">
<path d="M5380 6670 c-451 -47 -846 -201 -1208 -472 -125 -93 -357 -325 -450
-450 -245 -327 -396 -691 -459 -1098 -24 -161 -24 -500 1 -665 78 -519 302
-962 670 -1330 316 -316 676 -520 1096 -624 214 -52 330 -66 575 -65 249 0
365 14 581 69 834 214 1486 866 1699 1699 301 1178 -336 2383 -1481 2804 -127
47 -316 94 -464 117 -124 19 -440 27 -560 15z m559 -65 c387 -60 740 -209
1060 -448 127 -95 348 -317 445 -447 272 -366 414 -743 461 -1227 l6 -63
-2311 0 -2311 0 5 43 c3 23 8 74 11 112 34 378 206 809 454 1138 384 508 980
842 1616 907 125 12 439 4 564 -15z"/>
</g>
</svg>
