<?xml version="1.0" standalone="no"?>
<!DOCTYPE svg PUBLIC "-//W3C//DTD SVG 20010904//EN"
 "http://www.w3.org/TR/2001/REC-SVG-20010904/DTD/svg10.dtd">
<svg version="1.0" xmlns="http://www.w3.org/2000/svg"
 width="1920.000000pt" height="1080.000000pt" viewBox="0 0 1920.000000 1080.000000"
 preserveAspectRatio="xMidYMid meet">

<g transform="translate(0.000000,1080.000000) scale(0.100000,-0.100000)"
fill="#000000" stroke="none">
<path d="M9175 9080 c-636 -75 -1228 -306 -1750 -683 -167 -121 -315 -250
-475 -414 -469 -479 -791 -1054 -950 -1696 -75 -304 -92 -442 -97 -786 -6
-331 3 -473 43 -711 196 -1169 942 -2177 2004 -2706 409 -204 800 -318 1263
-369 205 -22 588 -20 797 5 605 71 1131 263 1630 594 947 629 1553 1647 1651
2771 15 173 7 555 -16 745 -102 856 -485 1632 -1102 2230 -292 284 -568 478
-935 660 -399 197 -780 310 -1221 360 -226 26 -622 26 -842 0z m775 -220
c1134 -118 2135 -783 2694 -1786 460 -828 556 -1863 255 -2765 -381 -1144
-1325 -2011 -2494 -2290 -246 -58 -431 -80 -728 -86 -452 -9 -781 37 -1162
164 -551 183 -993 458 -1395 870 -213 217 -349 390 -492 626 -270 445 -429
922 -489 1467 -19 175 -17 607 4 764 114 845 496 1585 1106 2140 607 551 1323
852 2171 910 86 6 425 -3 530 -14z"/>
</g>
</svg>
