<?xml version="1.0" standalone="no"?>
<!DOCTYPE svg PUBLIC "-//W3C//DTD SVG 20010904//EN"
 "http://www.w3.org/TR/2001/REC-SVG-20010904/DTD/svg10.dtd">
<svg version="1.0" xmlns="http://www.w3.org/2000/svg"
 width="1152.000000pt" height="720.000000pt" viewBox="0 0 1152.000000 720.000000"
 preserveAspectRatio="xMidYMid meet">

<g transform="translate(0.000000,720.000000) scale(0.100000,-0.100000)"
fill="#000000" stroke="none">
<path d="M4627 6059 c-514 -42 -1032 -243 -1437 -557 -47 -37 -141 -120 -209
-187 -208 -202 -353 -398 -473 -640 -111 -222 -172 -404 -215 -645 -22 -124
-26 -176 -27 -360 -1 -288 30 -491 114 -734 122 -353 285 -618 550 -890 145
-150 255 -242 417 -349 444 -295 937 -447 1468 -451 221 -2 349 5 500 30 1285
208 2210 1260 2162 2459 -24 593 -261 1126 -693 1559 -549 550 -1345 832
-2157 765z m608 -65 c317 -39 668 -154 949 -310 659 -368 1098 -973 1218
-1679 32 -189 32 -513 -1 -705 -82 -483 -304 -903 -662 -1257 -139 -137 -216
-200 -368 -302 -386 -258 -817 -405 -1303 -445 l-68 -5 0 2364 0 2364 58 -5
c31 -3 111 -12 177 -20z"/>
</g>
</svg>
