<?xml version="1.0" encoding="UTF-8"?>
<svg version="1.1" xmlns="http://www.w3.org/2000/svg" width="1152" height="720" style="background:none">
  <defs>
    <style><![CDATA[
      /* Hacer transparente cualquier área blanca */
      path[fill="#FFFFFF"] { fill: none; }
    ]]></style>
  </defs>

  <path d="M0 0 C380.16 0 760.32 0 1152 0 C1152 237.6 1152 475.2 1152 720 C771.84 720 391.68 720 0 720 C0 482.4 0 244.8 0 0 Z " fill="#FFFFFF" transform="translate(0,0)"/>
  <path d="M0 0 C120.12 0 240.24 0 364 0 C358.61271769 16.16184693 353.20237463 32.24528713 347.40307617 48.25317383 C339.96698134 68.78863539 332.69020975 89.37731658 325.5 110 C318.79777962 129.22006065 312.01782992 148.40988112 305.125 167.5625 C299.15334954 184.15674215 293.25280303 200.77229302 287.46508789 217.43157959 C282.56563412 231.53380338 277.61460226 245.61691235 272.625 259.6875 C272.2706488 260.68681549 271.91629761 261.68613098 271.5512085 262.71572876 C269.7538292 267.78384859 267.95569442 272.85169997 266.15722656 277.91943359 C262.95405881 286.94646045 259.7575068 295.97583022 256.56048584 305.0050354 C254.79059778 310.00345394 253.02027688 315.00171916 251.25 320 C250.5416646 321.99999927 249.83333126 323.99999927 249.125 326 C242.04166667 346 234.95833333 366 227.875 386 C227.52439514 386.98994461 227.17379028 387.97988922 226.81256104 388.99983215 C226.10402802 391.00039298 225.39549123 393.00095246 224.68695068 395.00151062 C222.91914167 399.99291911 221.15139754 404.98435057 219.38378906 409.97583008 C216.16035581 419.07814955 212.93639434 428.18028048 209.71009827 437.28158569 C200.76789043 462.50749487 191.853581 487.7428374 183 513 C182.34 513 181.68 513 181 513 C180.77910202 512.36600784 180.55820404 511.73201569 180.33061218 511.07881165 C177.45314194 502.82212812 174.57180184 494.56679916 171.6875 486.3125 C171.45124908 485.63639679 171.21499817 484.96029358 170.97158813 484.26370239 C164.2314676 464.9786344 157.42194637 445.72071743 150.5 426.5 C143.50205622 407.06719045 136.63528731 387.59078211 129.83337402 368.08868408 C123.47542546 349.86097316 117.04057027 331.66308155 110.5 313.5 C103.50309102 294.0696716 96.63679353 274.59593765 89.83605194 255.09627151 C83.35385059 236.51123341 76.79024102 217.95773371 70.125 199.4375 C64.15334954 182.84325785 58.25280303 166.22770698 52.46508789 149.56842041 C47.56563401 135.46619631 42.61456213 121.38310211 37.625 107.3125 C37.09596573 105.82050583 37.09596573 105.82050583 36.5562439 104.29837036 C34.76453724 99.2460491 32.9720594 94.19400187 31.17919922 89.14208984 C25.76706226 73.89036738 20.36696314 58.63437118 14.96650696 43.37850952 C13.03451597 37.92095002 11.1011823 32.46386903 9.16667175 27.00720215 C8.020986 23.77457989 6.87658125 20.54150535 5.73257446 17.30828857 C5.20706525 15.8239212 4.6810128 14.33974603 4.15438843 12.85577393 C3.44393825 10.8535726 2.73538663 8.85070989 2.02734375 6.84765625 C1.63281006 5.73398682 1.23827637 4.62031738 0.83178711 3.47290039 C0 1 0 1 0 0 Z " fill="#FFFFFF" transform="translate(415,133)"/>
  <path d="M0 0 C2.31996972 2.31996972 2.84809433 3.97926273 3.91674805 7.06835938 C4.28921158 8.13555206 4.66167511 9.20274475 5.04542542 10.30227661 C5.64749062 12.05530594 5.64749062 12.05530594 6.26171875 13.84375 C6.90903608 15.70489441 7.55635611 17.56603789 8.20379162 19.42714119 C8.89355058 21.41332133 9.58050305 23.40045212 10.2666626 25.38787842 C11.69637604 29.52841059 13.13402376 33.66615605 14.57373047 37.80322266 C14.81304794 38.49091799 15.05236542 39.17861332 15.29893494 39.8871479 C15.78203288 41.2752362 16.26516932 42.66331109 16.74834442 44.05137253 C17.47394062 46.13650338 18.19884491 48.2218738 18.92364502 50.30728149 C22.76389738 61.35160188 26.67259503 72.37034849 30.625 83.375 C36.29023489 99.16620603 41.87754769 114.98392763 47.4375 130.8125 C53.30354398 147.51068751 59.18843254 164.20174524 65.125 180.875 C65.61296051 182.24557053 65.61296051 182.24557053 66.11077881 183.64382935 C66.76792104 185.48954878 67.42506622 187.33526716 68.08221436 189.1809845 C68.40699768 190.09321274 68.73178101 191.00544098 69.06640625 191.9453125 C69.55285614 193.31153999 69.55285614 193.31153999 70.0491333 194.70536804 C73.73127204 205.04967571 77.39782395 215.39949527 81.0625 225.75 C81.40541077 226.71846863 81.74832153 227.68693726 82.10162354 228.68475342 C89.31598932 249.06115844 96.52515273 269.43940607 103.73518276 289.81734562 C109.77928961 306.89994902 115.82507894 323.98195465 121.875 341.0625 C122.21698425 342.02801788 122.55896851 342.99353577 122.91131592 343.98831177 C125.27407057 350.65892412 127.63701028 357.32947092 130 364 C132.36318304 370.67107479 134.72629324 377.34217536 137.0892334 384.01333618 C137.77873917 385.9599406 138.46827359 387.90653487 139.15783691 389.8531189 C143.41513675 401.87130332 147.66918465 413.89063255 151.91917992 425.91140175 C153.90495327 431.52786337 155.89110404 437.14419154 157.87726212 442.76051712 C158.6212239 444.8643218 159.36510373 446.96815544 160.10897827 449.07199097 C164.98788638 462.86966592 169.87160994 476.66549022 174.80078125 490.4453125 C175.16117493 491.45286591 175.5215686 492.46041931 175.8928833 493.49850464 C177.5377948 498.09495142 179.18532021 502.69044263 180.83642578 507.28466797 C181.12446579 508.08790497 181.4125058 508.89114197 181.70927429 509.71871948 C182.23822096 511.19374794 182.76841932 512.66832839 183.30012512 514.1423645 C185 518.88714313 185 518.88714313 185 520 C154.41329238 520.77872806 124.09574752 515.21478981 95 506 C94.0915332 505.71318359 93.18306641 505.42636719 92.24707031 505.13085938 C53.18927175 492.50582854 18.2060477 470.53379072 -12 443 C-13.7081916 441.47900748 -15.41652449 439.95817362 -17.125 438.4375 C-24.25277214 431.99915356 -30.67374356 425.38128352 -36.67578125 417.87109375 C-38.15715831 416.04115739 -39.67257393 414.2379066 -41.23046875 412.47265625 C-54.17510035 397.70666945 -65.05971063 380.47043755 -74 363 C-74.42587402 362.17274414 -74.85174805 361.34548828 -75.29052734 360.49316406 C-86.26336059 338.95202599 -94.35332202 316.49818357 -100 293 C-100.29148926 291.79029541 -100.29148926 291.79029541 -100.58886719 290.55615234 C-108.26012597 257.81607668 -109.69497786 222.32336417 -105 189 C-104.87641113 188.08347656 -104.75282227 187.16695312 -104.62548828 186.22265625 C-98.52322501 142.13842702 -82.2678142 97.19055701 -56 61 C-55.53094238 60.3498291 -55.06188477 59.6996582 -54.57861328 59.02978516 C-40.03840602 38.9860639 -23.69451101 19.32600245 -4.28515625 3.84765625 C-1.97975362 2.04993488 -1.97975362 2.04993488 0 0 Z " fill="#FFFFFF" transform="translate(409,133)"/>
  <path d="M0 0 C5.06292834 2.64023802 8.90067573 6.41000216 13 10.3125 C14.12559326 11.38056885 14.12559326 11.38056885 15.27392578 12.47021484 C26.50328348 23.21725694 36.69279178 34.55296842 46 47 C46.41846191 47.55623047 46.83692383 48.11246094 47.26806641 48.68554688 C84.89624066 99.01304642 105.28978447 160.73579877 105.1875 223.5 C105.18656342 224.24799866 105.18562683 224.99599731 105.18466187 225.7666626 C105.10225487 256.26049994 100.21560138 285.90168994 91 315 C90.56977539 316.3627002 90.56977539 316.3627002 90.13085938 317.75292969 C82.62742676 340.96614503 71.59191481 363.74737073 58 384 C57.51821289 384.72074707 57.03642578 385.44149414 56.54003906 386.18408203 C49.934857 395.9801214 42.80449808 405.13747586 35 414 C34.38769531 414.7115625 33.77539062 415.423125 33.14453125 416.15625 C31.44873022 418.1219291 29.72881253 420.0632923 28 422 C27.20335937 422.90105469 26.40671875 423.80210937 25.5859375 424.73046875 C14.79757624 436.81057604 2.90132625 447.23806662 -10 457 C-10.59006836 457.4522998 -11.18013672 457.90459961 -11.78808594 458.37060547 C-58.07396789 493.78269929 -118.60981881 517.22342186 -177.37109375 517.01953125 C-178.43126709 517.01671143 -179.49144043 517.0138916 -180.58374023 517.01098633 C-181.77978882 517.0055481 -181.77978882 517.0055481 -183 517 C-178.04873401 501.90746014 -172.88415924 486.90868576 -167.47851562 471.97314453 C-160.02167841 451.36067283 -152.71672286 430.69762331 -145.5 410 C-138.54297161 390.05046738 -131.49123896 370.13759538 -124.33300781 350.25927734 C-117.72769267 331.90842063 -111.25864132 313.51166738 -104.83605194 295.09627151 C-98.35385059 276.51123341 -91.79024102 257.95773371 -85.125 239.4375 C-79.15334954 222.84325785 -73.25280303 206.22770698 -67.46508789 189.56842041 C-62.56563412 175.46619662 -57.61460226 161.38308765 -52.625 147.3125 C-52.2706488 146.31318451 -51.91629761 145.31386902 -51.5512085 144.28427124 C-49.7538292 139.21615141 -47.95569442 134.14830003 -46.15722656 129.08056641 C-42.95331325 120.05143844 -39.75604191 111.01995841 -36.55828857 101.98864746 C-35.50340528 99.00961664 -34.4482794 96.03067186 -33.39306641 93.05175781 C-30.12954634 83.83855114 -26.86695732 74.62501765 -23.60742188 65.41040039 C-9.76270751 26.27177285 -9.76270751 26.27177285 -4.5 11.625 C-3.96632813 10.13722046 -3.96632813 10.13722046 -3.421875 8.61938477 C-3.10734375 7.74725342 -2.7928125 6.87512207 -2.46875 5.9765625 C-2.07333008 4.87948975 -2.07333008 4.87948975 -1.66992188 3.76025391 C-1 2 -1 2 0 0 Z " fill="#FFFFFF" transform="translate(783,136)"/>
  <path d="M0 0 C2.501508 2.26222952 2.501508 2.26222952 4.8046875 3.27734375 C7.04642059 4.43436728 8.5015751 6.00140197 10.25463867 7.78808594 C13.04286855 10.5795191 15.97089799 13.22403463 18.8671875 15.90234375 C28.84592274 25.19301634 38.26222484 34.56581197 46.7421875 45.27734375 C47.6986913 46.44551085 48.65712659 47.61209831 49.6171875 48.77734375 C84.26779197 91.03580974 105.56381668 143.27577967 112.7421875 197.27734375 C112.85933105 198.15036133 112.97647461 199.02337891 113.09716797 199.92285156 C122.76343704 275.84543452 100.9192368 354.59871899 54.5546875 415.27734375 C41.8613124 431.35147072 28.36240049 446.97723148 12.7421875 460.27734375 C11.90300781 461.00566406 11.06382812 461.73398437 10.19921875 462.484375 C-50.17494522 514.03141982 -128.92166095 538.34482611 -207.83203125 532.81640625 C-268.68180244 527.62712462 -327.69376049 503.97019611 -374.2578125 464.27734375 C-375.35356014 463.36645739 -376.4499498 462.45634295 -377.546875 461.546875 C-388.94088791 452.02742269 -399.80740146 441.75423469 -409.2578125 430.27734375 C-409.72010254 429.72353027 -410.18239258 429.1697168 -410.65869141 428.59912109 C-417.99591706 419.79941551 -425.01712911 410.90075841 -431.2578125 401.27734375 C-431.73686035 400.54483398 -432.2159082 399.81232422 -432.70947266 399.05761719 C-475.84989724 332.66086282 -491.17278859 252.21487375 -475.5703125 174.58984375 C-469.73847126 147.22999861 -460.46121848 120.95079776 -447.2578125 96.27734375 C-446.8644873 95.54 -446.47116211 94.80265625 -446.06591797 94.04296875 C-428.04449611 60.46495413 -403.28120895 28.97169747 -373.2578125 5.27734375 C-372.09079525 4.32232848 -370.92552247 3.36517874 -369.76171875 2.40625 C-351.5474516 -12.52882537 -331.52175797 -24.63276582 -310.2578125 -34.72265625 C-309.59297852 -35.04443848 -308.92814453 -35.3662207 -308.24316406 -35.69775391 C-214.08185536 -81.0204901 -98.37863267 -68.82621001 0 0 Z M-369.2578125 8.27734375 C-370.3096875 9.23833984 -370.3096875 9.23833984 -371.3828125 10.21875 C-372.3315625 11.08371094 -373.2803125 11.94867188 -374.2578125 12.83984375 C-374.76183594 13.2994751 -375.26585937 13.75910645 -375.78515625 14.23266602 C-378.57465201 16.7697408 -381.39083623 19.26596819 -384.2578125 21.71484375 C-392.22928084 28.67561467 -399.43483075 36.19988623 -406.01953125 44.48046875 C-408.32870382 47.36592697 -410.72624584 50.16034087 -413.1328125 52.96484375 C-419.03848088 60.04430957 -424.19375575 67.5809311 -429.2578125 75.27734375 C-429.93457031 76.30085938 -430.61132812 77.324375 -431.30859375 78.37890625 C-453.8508524 113.75578421 -467.61458161 153.51686724 -474.0078125 194.83984375 C-474.12358643 195.5879834 -474.23936035 196.33612305 -474.35864258 197.10693359 C-485.01248335 271.33544244 -463.75763343 349.0487909 -419.61328125 409.15234375 C-415.96984643 413.98608812 -412.16664939 418.65665363 -408.2578125 423.27734375 C-407.32151941 424.40096236 -406.38532646 425.52466444 -405.44921875 426.6484375 C-396.47961329 437.34092643 -386.93308312 447.26524935 -376.2578125 456.27734375 C-374.88109375 457.48777344 -374.88109375 457.48777344 -373.4765625 458.72265625 C-329.41723235 497.21520039 -271.40537535 521.67363619 -213.2578125 527.27734375 C-212.19691406 527.38691406 -211.13601563 527.49648438 -210.04296875 527.609375 C-201.43771237 528.39167103 -192.88972259 528.35932847 -184.2578125 528.27734375 C-188.85074504 514.26022497 -193.68816098 500.34789027 -198.70385742 486.47680664 C-206.18153842 465.78736871 -213.51486222 445.05000242 -220.7578125 424.27734375 C-227.4602018 405.05734097 -234.2399819 385.86746452 -241.1328125 366.71484375 C-247.10446296 350.1206016 -253.00500947 333.50505073 -258.79272461 316.84576416 C-263.69217838 302.74354037 -268.64321024 288.6604314 -273.6328125 274.58984375 C-274.16433929 273.09087051 -274.16433929 273.09087051 -274.706604 271.56161499 C-276.5039833 266.49349516 -278.30211808 261.42564378 -280.10058594 256.35791016 C-283.30375369 247.3308833 -286.5003057 238.30151353 -289.69732666 229.27230835 C-291.46721472 224.27388981 -293.23753562 219.27562459 -295.0078125 214.27734375 C-295.7161479 212.27734448 -296.42448124 210.27734448 -297.1328125 208.27734375 C-297.4834375 207.28734375 -297.8340625 206.29734375 -298.1953125 205.27734375 C-310.59114583 170.27734375 -322.98697917 135.27734375 -335.3828125 100.27734375 C-335.73336197 99.28757538 -336.08391144 98.29780701 -336.44508362 97.27804565 C-337.15422658 95.27572251 -337.86332277 93.2733828 -338.57237244 91.27102661 C-340.33043749 86.30643463 -342.08928398 81.3421224 -343.84985352 76.37841797 C-347.19083569 66.95623243 -350.52305416 57.53116252 -353.83004761 48.09698486 C-355.40269421 43.61198106 -356.97949667 39.12844351 -358.55664062 34.64501953 C-359.31149719 32.49536154 -360.06428854 30.34497717 -360.81494141 28.19384766 C-361.85197153 25.22245599 -362.89591492 22.25357935 -363.94140625 19.28515625 C-364.24892319 18.39804962 -364.55644012 17.51094299 -364.87327576 16.59695435 C-365.15929153 15.78910492 -365.44530731 14.98125549 -365.73999023 14.14892578 C-366.10941994 13.0936821 -366.10941994 13.0936821 -366.48631287 12.01712036 C-367.22461914 10.07069963 -367.22461914 10.07069963 -369.2578125 8.27734375 Z M-363.2578125 8.27734375 C-357.5108381 25.51826695 -351.77668674 42.68378095 -345.58544922 59.75683594 C-343.53308238 65.41908312 -341.49449131 71.08628093 -339.45703125 76.75390625 C-339.03207367 77.9359967 -338.60711609 79.11808716 -338.16928101 80.33599854 C-333.28322946 93.95429617 -328.52087946 107.61567373 -323.7578125 121.27734375 C-317.0556765 140.49743331 -310.27564208 159.68722582 -303.3828125 178.83984375 C-297.41116204 195.4340859 -291.51061553 212.04963677 -285.72290039 228.70892334 C-280.82344662 242.81114713 -275.87241476 256.8942561 -270.8828125 270.96484375 C-270.35128571 272.46381699 -270.35128571 272.46381699 -269.809021 273.99307251 C-268.0116417 279.06119234 -266.21350692 284.12904372 -264.41503906 289.19677734 C-261.21187131 298.2238042 -258.0153193 307.25317397 -254.81829834 316.28237915 C-253.04841028 321.28079769 -251.27808938 326.27906291 -249.5078125 331.27734375 C-248.7994771 333.27734302 -248.09114376 335.27734302 -247.3828125 337.27734375 C-247.0321875 338.26734375 -246.6815625 339.25734375 -246.3203125 340.27734375 C-226.13281251 397.27734371 -226.13281251 397.27734371 -225.07038879 400.27713013 C-224.36180265 402.27784274 -223.65321501 404.27855481 -222.94462585 406.27926636 C-221.17764813 411.26835905 -219.41069629 416.25746091 -217.64379883 421.24658203 C-214.41040033 430.37652352 -211.17678327 439.50638736 -207.94224548 448.63592529 C-199.3653852 472.84431648 -190.79706003 497.05565659 -182.2578125 521.27734375 C-181.5978125 521.27734375 -180.9378125 521.27734375 -180.2578125 521.27734375 C-180.07814438 520.7567337 -179.89847626 520.23612366 -179.71336365 519.69973755 C-171.8645481 496.96278516 -164.00494052 474.23086648 -155.8828125 451.58984375 C-150.13557729 435.56893578 -144.46053604 419.52374303 -138.8203125 403.46484375 C-132.95442807 386.76660066 -127.06937969 370.07559775 -121.1328125 353.40234375 C-120.64485199 352.03177322 -120.64485199 352.03177322 -120.14703369 350.6335144 C-119.48989146 348.78779497 -118.83274628 346.94207659 -118.17559814 345.09635925 C-117.68842316 343.72801689 -117.68842316 343.72801689 -117.19140625 342.33203125 C-116.70495636 340.96580376 -116.70495636 340.96580376 -116.2086792 339.57197571 C-112.52654046 329.22766804 -108.85998855 318.87784848 -105.1953125 308.52734375 C-104.85240173 307.55887512 -104.50949097 306.59040649 -104.15618896 305.59259033 C-96.94182318 285.21618531 -89.73265977 264.83793768 -82.52262974 244.45999813 C-76.47852289 227.37739473 -70.43273356 210.2953891 -64.3828125 193.21484375 C-64.04082825 192.24932587 -63.69884399 191.28380798 -63.34649658 190.28903198 C-60.65036039 182.67720508 -57.9539728 175.06546724 -55.25756836 167.45373535 C-52.88252668 160.7491484 -50.50759462 154.04452264 -48.1328125 147.33984375 C-47.79131165 146.3756955 -47.44981079 145.41154724 -47.09796143 144.41818237 C-42.62057624 131.77689986 -38.14533744 119.13485865 -33.671875 106.4921875 C-33.43085997 105.81105455 -33.18984493 105.12992161 -32.94152641 104.42814827 C-30.4772248 97.46374631 -28.01310338 90.4992807 -25.54963207 83.534585 C-24.33656744 80.10505467 -23.12339655 76.67556194 -21.91015625 73.24609375 C-21.55316745 72.23699101 -21.55316745 72.23699101 -21.18896675 71.20750237 C-17.8022669 61.63499867 -14.40916487 52.06478951 -11.01171875 42.49609375 C-9.82269676 39.14560947 -8.63375752 35.79509583 -7.44482422 32.44458008 C-6.34195473 29.33830003 -5.23740672 26.23262019 -4.1328125 23.12695312 C-3.47778165 21.28127943 -2.82282861 19.43557812 -2.16796875 17.58984375 C-1.71980553 16.33246399 -1.71980553 16.33246399 -1.2625885 15.04968262 C0.12718033 11.73876531 0.12718033 11.73876531 0.7421875 8.27734375 C-119.3778125 8.27734375 -239.4978125 8.27734375 -363.2578125 8.27734375 Z M4.7421875 11.27734375 C-1.15198974 27.06487119 -6.77367744 42.94737428 -12.38198853 58.8380127 C-13.66318945 62.46722274 -14.9458979 66.09589986 -16.22851562 69.72460938 C-17.78365802 74.12456832 -19.33870526 78.52456073 -20.89312744 82.92477417 C-24.84521338 94.11220908 -28.80399311 105.29726114 -32.76690674 116.48086548 C-39.51998373 135.53901794 -46.26505968 154.60000034 -53.00914764 173.66133499 C-60.04775751 193.55509653 -67.08731509 213.44852009 -74.1328125 233.33984375 C-74.47479675 234.30536163 -74.81678101 235.27087952 -75.16912842 236.26565552 C-77.86526461 243.87748242 -80.5616522 251.48922026 -83.25805664 259.10095215 C-85.63309832 265.8055391 -88.00803038 272.51016486 -90.3828125 279.21484375 C-90.72431335 280.178992 -91.06581421 281.14314026 -91.41766357 282.13650513 C-98.36781662 301.75930826 -105.31162203 321.38435634 -112.25518799 341.00949097 C-118.75280534 359.37414689 -125.25276198 377.73797066 -131.75778198 396.1000061 C-135.88157614 407.7405611 -140.00291507 419.38198151 -144.12085533 431.02460861 C-144.85795376 433.10858831 -145.59508591 435.19255609 -146.33222961 437.27651978 C-146.57756156 437.97009394 -146.82289351 438.6636681 -147.07565975 439.37825966 C-147.5743085 440.78797774 -148.07295874 442.1976953 -148.57161045 443.60741234 C-149.81486197 447.12219029 -151.05803819 450.63699483 -152.30105591 454.15185547 C-157.28196243 468.23590578 -162.26718532 482.31833572 -167.28125 496.390625 C-167.6635527 497.46390549 -168.04585541 498.53718597 -168.43974304 499.64299011 C-170.2037438 504.59442832 -171.96958063 509.54519898 -173.73852539 514.49487305 C-174.34786309 516.20359756 -174.95715954 517.91233679 -175.56640625 519.62109375 C-175.98175125 520.78001884 -175.98175125 520.78001884 -176.40548706 521.96235657 C-177.69645084 525.0469643 -177.69645084 525.0469643 -178.2578125 528.27734375 C-124.78526865 530.27010936 -67.37646201 510.886187 -23.2578125 481.27734375 C-22.53706543 480.79555664 -21.81631836 480.31376953 -21.07373047 479.81738281 C-11.27802609 473.21242663 -2.11867545 466.08334207 6.7421875 458.27734375 C7.47695313 457.64183594 8.21171875 457.00632812 8.96875 456.3515625 C10.25464296 455.23729271 11.53482997 454.11639636 12.80859375 452.98828125 C14.18130298 451.77364157 15.56535715 450.57176977 16.95703125 449.37890625 C29.29646644 438.61939874 39.92148476 426.33305898 49.7421875 413.27734375 C50.19158691 412.69017578 50.64098633 412.10300781 51.10400391 411.49804688 C83.13731899 369.63542439 103.91329284 317.87156989 108.7421875 265.27734375 C108.82686279 264.38208984 108.91153809 263.48683594 108.9987793 262.56445312 C109.77469336 253.63144074 109.94317283 244.73622438 109.9296875 235.77734375 C109.92908325 235.03100677 109.928479 234.2846698 109.92785645 233.51571655 C109.90120944 221.34209827 109.47877312 209.34378242 107.7421875 197.27734375 C107.61328125 196.38112305 107.484375 195.48490234 107.3515625 194.56152344 C97.32033847 127.4312719 64.00864983 57.2648943 9.7421875 14.27734375 C8.08223412 13.26623913 6.41624674 12.26491827 4.7421875 11.27734375 Z " fill="#000000" transform="translate(778.2578125,124.72265625)"/>
  <path d="M0 0 C0.87954346 0.62068359 0.87954346 0.62068359 1.77685547 1.25390625 C5.7493251 4.1236502 5.7493251 4.1236502 6.875 6.375 C-110.605 6.375 -228.085 6.375 -349.125 6.375 C-343.58125754 0.83125754 -337.6200786 -3.33698695 -331.125 -7.625 C-330.15820312 -8.264375 -329.19140625 -8.90375 -328.1953125 -9.5625 C-239.43845352 -66.0655402 -127.56494148 -68.46997999 0 0 Z " fill="#FFFFFF" transform="translate(766.125,121.625)"/>
</svg>