<?xml version="1.0" standalone="no"?>
<!DOCTYPE svg PUBLIC "-//W3C//DTD SVG 20010904//EN"
 "http://www.w3.org/TR/2001/REC-SVG-20010904/DTD/svg10.dtd">
<svg version="1.0" xmlns="http://www.w3.org/2000/svg"
 width="816.000000pt" height="820.000000pt" viewBox="0 0 816.000000 820.000000"
 preserveAspectRatio="xMidYMid meet">

<g transform="translate(0.000000,820.000000) scale(0.100000,-0.100000)"
fill="#000000" stroke="none">
<path d="M3625 7478 c-355 -34 -818 -153 -1096 -281 -30 -14 -83 -38 -119 -55
-108 -49 -369 -197 -462 -262 -212 -146 -333 -245 -502 -410 -352 -342 -589
-718 -867 -1375 -60 -142 -137 -426 -159 -590 -5 -33 -16 -114 -26 -180 -13
-90 -17 -190 -18 -400 -1 -306 6 -397 55 -667 20 -109 81 -337 114 -423 93
-243 133 -342 171 -423 24 -52 44 -95 44 -97 0 -2 25 -47 55 -100 30 -54 55
-99 55 -100 0 -2 23 -41 51 -87 66 -106 171 -245 268 -355 42 -48 100 -116
130 -152 242 -294 721 -666 1093 -849 191 -95 383 -169 548 -214 19 -5 51 -14
70 -19 146 -42 393 -86 644 -114 160 -17 497 -20 630 -4 180 21 382 50 441 64
414 97 615 167 900 314 589 305 1057 719 1400 1241 178 270 348 658 434 990 5
19 14 53 20 75 27 101 61 305 76 462 30 320 16 835 -30 1048 -14 66 -30 140
-35 165 -14 71 -76 268 -110 350 -17 41 -47 116 -67 165 -41 101 -156 335
-229 465 -316 563 -773 1014 -1381 1361 -51 29 -290 149 -297 149 -3 0 -25 9
-49 19 -145 68 -452 170 -617 206 -41 9 -93 20 -115 25 -22 5 -53 12 -70 15
-206 46 -695 68 -950 43z m670 -283 c155 -17 265 -32 320 -44 22 -5 63 -14 90
-19 112 -24 361 -103 487 -156 328 -136 614 -308 888 -532 176 -144 267 -234
450 -439 167 -188 418 -597 510 -830 13 -33 26 -64 30 -70 9 -12 74 -185 89
-235 6 -19 20 -62 31 -96 32 -95 86 -349 99 -459 7 -55 17 -136 23 -181 11
-86 6 -456 -7 -487 -6 -14 -14 -17 -34 -13 -14 4 -758 9 -1653 13 -1314 5
-1628 8 -1632 19 -6 15 13 3513 19 3532 6 16 124 16 290 -3z"/>
</g>
</svg>
