<?xml version="1.0" standalone="no"?>
<!DOCTYPE svg PUBLIC "-//W3C//DTD SVG 20010904//EN"
 "http://www.w3.org/TR/2001/REC-SVG-20010904/DTD/svg10.dtd">
<svg version="1.0" xmlns="http://www.w3.org/2000/svg"
 width="1152.000000pt" height="720.000000pt" viewBox="0 0 1152.000000 720.000000"
 preserveAspectRatio="xMidYMid meet">

<g transform="translate(0.000000,720.000000) scale(0.100000,-0.100000)"
fill="#000000" stroke="none">
<path d="M3150 4315 l0 -2145 2145 0 2145 0 0 2145 0 2145 -2145 0 -2145 0 0
-2145z m4240 1085 l0 -1010 -2095 0 -2095 0 0 1010 0 1010 2095 0 2095 0 0
-1010z m-3570 -1074 c-8 -7 -151 -122 -317 -255 l-303 -241 0 255 0 255 317 0
c269 0 315 -2 303 -14z m550 0 c-8 -7 -233 -197 -500 -421 -267 -225 -527
-444 -577 -488 l-93 -79 0 214 0 214 358 287 357 286 235 1 c198 0 232 -2 220
-14z m580 -10 c-36 -33 -1722 -1470 -1737 -1479 -10 -7 -13 39 -13 215 l0 223
631 533 632 532 256 0 256 0 -25 -24z m580 -6 c-19 -16 -550 -465 -1180 -997
l-1145 -969 -3 209 c-2 194 -1 211 16 223 10 7 427 362 927 788 l910 776 255
0 255 -1 -35 -29z m560 16 c-8 -8 -568 -485 -1245 -1060 l-1230 -1046 -208 0
-208 0 3 29 c3 26 164 166 1222 1060 l1219 1031 230 0 c201 0 229 -2 217 -14z
m-676 -1046 l-1228 -1060 -245 0 c-214 0 -243 2 -231 14 8 8 568 485 1245
1060 l1230 1046 228 0 228 0 -1227 -1060z m1579 896 c-103 -90 -651 -567
-1218 -1060 l-1030 -896 -239 0 c-151 0 -236 4 -230 9 5 6 556 482 1224 1060
l1215 1050 233 0 233 1 -188 -164z m397 41 l0 -123 -1046 -937 -1046 -937
-236 0 c-208 0 -235 2 -222 15 9 8 555 485 1215 1059 l1200 1045 68 0 67 1 0
-123z m-12 -553 c-7 -6 -368 -334 -802 -728 l-789 -716 -206 0 -206 0 30 29
c17 16 469 422 1005 902 l975 872 3 -173 c2 -131 -1 -177 -10 -186z m12 -247
l0 -183 -542 -507 -543 -507 -220 0 -219 0 22 23 c56 56 1488 1355 1495 1356
4 1 7 -81 7 -182z m-272 -924 l-273 -273 -231 2 -230 3 501 468 500 468 3
-198 2 -198 -272 -272z m272 -38 l0 -235 -237 0 -238 0 235 235 c129 129 236
235 237 235 2 0 3 -106 3 -235z"/>
</g>
</svg>
