<?xml version="1.0" encoding="UTF-8"?>
<svg version="1.1" xmlns="http://www.w3.org/2000/svg" width="1152" height="720" style="background:none">
  <defs>
    <!-- Máscara: blanco = visible, negro = perforado (transparente) -->
    <mask id="cutout" maskUnits="userSpaceOnUse" x="0" y="0" width="1152" height="720">
      <rect x="0" y="0" width="1152" height="720" fill="white"/>
      <g>
        <path d="M0 0 C66 0 132 0 200 0 C200 66.66 200 133.32 200 202 C134 202 68 202 0 202 C0 135.34 0 68.68 0 0 Z " fill="black" transform="translate(539,79)"/>
        <path d="M0 0 C1.90845703 0.04060547 1.90845703 0.04060547 3.85546875 0.08203125 C5.31919922 0.13423828 5.31919922 0.13423828 6.8125 0.1875 C9.02759514 21.01182849 9.02759514 21.01182849 5.56738281 27.53466797 C2.44006466 31.39054182 -1.38408424 34.26517543 -5.48291016 37.02685547 C-7.61167457 38.4763178 -9.48179844 40.13261953 -11.375 41.875 C-12.27798828 42.65423828 -12.27798828 42.65423828 -13.19921875 43.44921875 C-15.72802928 45.66006489 -18.20622564 47.92346443 -20.6875 50.1875 C-24.45100521 53.62014761 -28.24879351 57.0030501 -32.09375 60.34375 C-35.6156247 63.44510235 -39.06827022 66.62263333 -42.53515625 69.78515625 C-44.71210996 71.75691844 -46.90588674 73.70115337 -49.125 75.625 C-52.5343858 78.5863351 -55.8654431 81.62902486 -59.1875 84.6875 C-63.14612186 88.33164329 -67.1392676 91.92663717 -71.203125 95.453125 C-75.24123262 98.98249465 -79.20724189 102.59320631 -83.1875 106.1875 C-92.6796875 114.75923295 -92.6796875 114.75923295 -97.0625 118.5625 C-100.49082192 121.54666686 -103.84370801 124.60938484 -107.1875 127.6875 C-111.14614649 131.33161716 -115.13926688 134.92663655 -119.203125 138.453125 C-123.24123262 141.98249465 -127.20724189 145.59320631 -131.1875 149.1875 C-140.6796875 157.75923295 -140.6796875 157.75923295 -145.0625 161.5625 C-148.49082192 164.54666686 -151.84370801 167.60938484 -155.1875 170.6875 C-159.14614649 174.33161716 -163.13926688 177.92663655 -167.203125 181.453125 C-169.50899035 183.46848763 -171.78689131 185.51303876 -174.0625 187.5625 C-175.31546875 188.68978516 -175.31546875 188.68978516 -176.59375 189.83984375 C-178.37175032 191.44914825 -180.14223256 193.06678674 -181.90625 194.69140625 C-182.7828125 195.49449219 -183.659375 196.29757812 -184.5625 197.125 C-185.35398437 197.85589844 -186.14546875 198.58679688 -186.9609375 199.33984375 C-188.9980991 201.03033048 -190.81695449 202.0606978 -193.1875 203.1875 C-193.4361713 197.51358598 -193.61681269 191.84289053 -193.73681641 186.16479492 C-193.78686835 184.23714921 -193.85493798 182.30987868 -193.94189453 180.38354492 C-194.64460701 164.40716994 -194.64460701 164.40716994 -191.10595703 159.01660156 C-188.58366754 156.73437352 -186.09321339 154.94483926 -183.1875 153.1875 C-182.21039062 152.37539063 -181.23328125 151.56328125 -180.2265625 150.7265625 C-179.42992187 150.09492188 -178.63328125 149.46328125 -177.8125 148.8125 C-173.25889288 145.13113311 -168.95167484 141.25975527 -164.66845703 137.27392578 C-160.58107285 133.49273247 -156.30715827 129.99067332 -151.96875 126.5 C-148.94730812 123.9877899 -146.06308227 121.36349173 -143.1875 118.6875 C-138.59989887 114.41831848 -133.85307272 110.42991483 -128.96875 106.5 C-125.41564914 103.54573636 -122.0472632 100.41836576 -118.66577148 97.27124023 C-115.4545095 94.30034372 -112.16122185 91.48788923 -108.75 88.75 C-104.56512693 85.38403735 -100.60435602 81.85573983 -96.6875 78.1875 C-91.92658666 73.72877805 -87.02282437 69.54952376 -81.93359375 65.46484375 C-78.92430948 62.96923531 -76.04811346 60.34984857 -73.1875 57.6875 C-68.59992561 53.41829221 -63.85306996 49.42991261 -58.96875 45.5 C-55.94730812 42.9877899 -53.06308227 40.36349173 -50.1875 37.6875 C-45.59989887 33.41831848 -40.85307272 29.42991483 -35.96875 25.5 C-32.42323234 22.5520415 -29.06127192 19.43224611 -25.68774414 16.29101562 C-21.42946829 12.35025194 -16.99903146 8.68452366 -12.46484375 5.0625 C-10.20643619 3.34101889 -10.20643619 3.34101889 -8.828125 1.44921875 C-6.10486833 -0.64509531 -3.34083201 -0.0919495 0 0 Z " fill="black" transform="translate(732.1875,285.8125)"/>
        <path d="M0 0 C2.25245861 33.0005179 2.25245861 33.0005179 -2.54296875 39.6796875 C-5.1368791 42.30171505 -8.08550148 44.22760332 -11.30322266 46.00830078 C-13.88104977 47.51493873 -15.91006823 49.50838485 -18.0625 51.5625 C-19.25552734 52.63177734 -19.25552734 52.63177734 -20.47265625 53.72265625 C-23.33082203 56.29809775 -26.16710261 58.89685764 -29 61.5 C-33.45332617 65.59169207 -37.93659888 69.64822977 -42.4375 73.6875 C-45.30600409 76.27615003 -48.1547665 78.88585146 -51 81.5 C-55.45335487 85.59166107 -59.93659854 89.64822946 -64.4375 93.6875 C-67.30600409 96.27615003 -70.1547665 98.88585146 -73 101.5 C-77.45335487 105.59166107 -81.93659854 109.64822946 -86.4375 113.6875 C-89.30600409 116.27615003 -92.1547665 118.88585146 -95 121.5 C-99.45335487 125.59166107 -103.93659854 129.64822946 -108.4375 133.6875 C-111.30600445 136.27615036 -114.15472981 138.88589108 -117 141.5 C-123.09987144 147.10303176 -129.25561163 152.64212914 -135.421875 158.171875 C-139.00357957 161.38856509 -142.58102172 164.60858939 -146.12109375 167.87109375 C-146.6517041 168.35980957 -147.18231445 168.84852539 -147.72900391 169.35205078 C-149.23352585 170.7396626 -150.73596201 172.12953494 -152.23828125 173.51953125 C-153.14964844 174.33808594 -154.06101562 175.15664063 -155 176 C-155.6914209 176.70310303 -156.3828418 177.40620605 -157.09521484 178.13061523 C-161.17958526 180.75912627 -164.48368831 180.50622278 -169.23828125 180.390625 C-170.11904831 180.38496521 -170.99981537 180.37930542 -171.90727234 180.37347412 C-174.70957693 180.3511533 -177.51058446 180.30096577 -180.3125 180.25 C-182.21677836 180.22992941 -184.12107684 180.21167961 -186.02539062 180.1953125 C-190.68409053 180.15130267 -195.34182565 180.08230549 -200 180 C-198.10694916 175.8213276 -195.24895283 173.20414928 -191.875 170.1875 C-191.28678467 169.65342529 -190.69856934 169.11935059 -190.0925293 168.5690918 C-186.41391897 165.2383693 -182.70085841 161.94749376 -178.94921875 158.69921875 C-174.91905909 155.18595331 -170.96793932 151.58316944 -167 148 C-157.5078125 139.42826705 -157.5078125 139.42826705 -153.125 135.625 C-149.69667808 132.64083314 -146.34379199 129.57811516 -143 126.5 C-139.04135351 122.85588284 -135.04823312 119.26086345 -130.984375 115.734375 C-126.94626738 112.20500535 -122.98025811 108.59429369 -119 105 C-109.51127959 96.43139793 -109.51127959 96.43139793 -105.0625 92.5625 C-100.86557919 88.90821138 -96.7634724 85.15255027 -92.65234375 81.40234375 C-90.47539004 79.43058156 -88.28161326 77.48634663 -86.0625 75.5625 C-82.6531142 72.6011649 -79.3220569 69.55847514 -76 66.5 C-72.04137814 62.85585671 -68.0482324 59.26086283 -63.984375 55.734375 C-59.94626738 52.20500535 -55.98025811 48.59429369 -52 45 C-42.5078125 36.42826705 -42.5078125 36.42826705 -38.125 32.625 C-34.69667808 29.64083314 -31.34379199 26.57811516 -28 23.5 C-24.05082459 19.86460141 -20.06979885 16.2753185 -16.01171875 12.76171875 C-12.69886757 9.8605617 -9.45267967 6.88541113 -6.19921875 3.91796875 C-1.70672098 0 -1.70672098 0 0 0 Z " fill="black" transform="translate(739,318)"/>
        <path d="M0 0 C0.83272934 0.00222061 1.66545868 0.00444122 2.52342224 0.00672913 C3.46432205 0.00680466 4.40522186 0.00688019 5.37463379 0.00695801 C6.39754013 0.01211929 7.42044647 0.01728058 8.47434998 0.02259827 C9.51614914 0.02401321 10.5579483 0.02542816 11.63131714 0.02688599 C14.97355467 0.03250372 18.31572629 0.04505922 21.65794373 0.05775452 C23.91770839 0.06276723 26.17747409 0.06733053 28.4372406 0.07142639 C33.98999763 0.08247891 39.54271597 0.09923428 45.09544373 0.12025452 C38.61577742 6.62542604 31.86932856 12.73069131 24.72044373 18.49525452 C20.1668366 22.1766214 15.85961856 26.04799924 11.57640076 30.03382874 C7.48901658 33.81502204 3.215102 37.31708119 -1.12330627 40.80775452 C-4.67640714 43.76201815 -8.04479308 46.88938875 -11.42628479 50.03651428 C-14.63754678 53.0074108 -17.93083443 55.81986528 -21.34205627 58.55775452 C-25.52692934 61.92371717 -29.48770025 65.45201469 -33.40455627 69.12025452 C-38.16546961 73.57897647 -43.06923191 77.75823075 -48.15846252 81.84291077 C-51.1677468 84.3385192 -54.04394282 86.95790594 -56.90455627 89.62025452 C-61.49213067 93.8894623 -66.23898632 97.87784191 -71.12330627 101.80775452 C-74.14474816 104.31996462 -77.028974 106.94426279 -79.90455627 109.62025452 C-84.49215741 113.88943603 -89.23898356 117.87783969 -94.12330627 121.80775452 C-97.14474816 124.31996462 -100.028974 126.94426279 -102.90455627 129.62025452 C-107.48015571 133.87826736 -112.21030661 137.86038324 -117.08815002 141.77259827 C-120.8700527 144.92505806 -124.4612626 148.26767513 -128.02174377 151.66712952 C-131.69254428 155.12025452 -131.69254428 155.12025452 -133.90455627 155.12025452 C-134.25389952 149.50158674 -134.50604265 143.88937354 -134.67359924 138.26234436 C-134.7434912 136.35464826 -134.83866041 134.44768828 -134.96070862 132.5426178 C-135.91752448 117.20944254 -135.91752448 117.20944254 -132.60609436 112.12757874 C-129.37325926 108.55859518 -125.61035504 105.84805428 -121.58674622 103.23487854 C-119.47455096 101.83533173 -117.6196658 100.23101994 -115.74830627 98.52650452 C-115.18885315 98.04052795 -114.62940002 97.55455139 -114.05299377 97.05384827 C-113.5090094 96.58076233 -112.96502502 96.10767639 -112.40455627 95.62025452 C-107.58569307 91.43651345 -102.75365771 87.26890739 -97.90455627 83.12025452 C-90.54226218 76.82023873 -83.22183206 70.47244911 -75.90455627 64.12025452 C-68.01308673 57.26959703 -60.11157323 50.43181002 -52.17164612 43.63734436 C-45.38903433 37.82938798 -38.64764678 31.97399357 -31.90455627 26.12025452 C-29.38414763 23.93226453 -26.86340128 21.74466544 -24.34205627 19.55775452 C-23.73096008 19.02770813 -23.11986389 18.49766174 -22.49024963 17.95155334 C-17.41305377 13.55203263 -12.31513647 9.17697186 -7.20704651 4.81336975 C-1.70279859 0.10751545 -1.70279859 0.10751545 0 0 Z " fill="black" transform="translate(672.9045562744141,285.87974548339844)"/>
        <path d="M0 0 C0.66 0 1.32 0 2 0 C2.17382512 5.14102104 2.30042611 10.28031104 2.38452148 15.42358398 C2.41959498 17.17063206 2.46726971 18.91747655 2.52807617 20.66381836 C3.01975851 35.15398619 3.01975851 35.15398619 0.55126953 39.62255859 C-1.20285838 41.38980148 -2.88940668 42.69169076 -5 44 C-5.721875 44.6496875 -6.44375 45.299375 -7.1875 45.96875 C-7.785625 46.4740625 -8.38375 46.979375 -9 47.5 C-11.60647609 49.7455794 -14.08934521 52.04551512 -16.5 54.5 C-18.89053167 56.93389732 -21.35046262 59.21355559 -23.9375 61.4375 C-26.74576347 63.85617779 -29.39970593 66.35899683 -32 69 C-35.2215855 72.27202128 -38.58592145 75.29316055 -42.06640625 78.28515625 C-43.95494597 79.96004299 -45.73155648 81.69947587 -47.5 83.5 C-49.89053167 85.93389732 -52.35046262 88.21355559 -54.9375 90.4375 C-57.74576347 92.85617779 -60.39970593 95.35899683 -63 98 C-66.2215855 101.27202128 -69.58592145 104.29316055 -73.06640625 107.28515625 C-75.56431556 109.5004738 -77.88024989 111.8689817 -80.21875 114.25 C-82.71896185 116.70634849 -85.37680516 118.96309368 -88.03125 121.25 C-90.53085461 123.47187076 -92.853161 125.8412377 -95.1953125 128.2265625 C-97.82566564 130.8113684 -100.60461763 133.21169781 -103.3984375 135.6171875 C-104.28852819 136.38570483 -105.16847119 137.16847119 -106 138 C-107.38160115 138.0927833 -108.76788038 138.11747043 -110.15258789 138.11352539 C-111.03342545 138.11344986 -111.914263 138.11337433 -112.8217926 138.11329651 C-113.77907761 138.10813522 -114.73636261 138.10297394 -115.72265625 138.09765625 C-116.69786728 138.0962413 -117.67307831 138.09482635 -118.67784119 138.09336853 C-121.80609143 138.08775133 -124.93427123 138.07519593 -128.0625 138.0625 C-130.17773334 138.05748722 -132.29296781 138.05292393 -134.40820312 138.04882812 C-139.60549296 138.03777631 -144.80274145 138.02102146 -150 138 C-149.06135676 136.88960069 -148.12048888 135.78108172 -147.17871094 134.67333984 C-146.65500916 134.05582855 -146.13130737 133.43831726 -145.59173584 132.80209351 C-143.30939808 130.2181308 -140.81111267 127.9300014 -138.25 125.625 C-137.73050781 125.15513672 -137.21101562 124.68527344 -136.67578125 124.20117188 C-135.12096415 122.79651437 -133.56109292 121.39767552 -132 120 C-131.14921875 119.23429687 -130.2984375 118.46859375 -129.421875 117.6796875 C-127.80311884 116.22280695 -126.18332103 114.76708298 -124.5625 113.3125 C-121.69399591 110.72384997 -118.8452335 108.11414854 -116 105.5 C-111.54664513 101.40833893 -107.06340146 97.35177054 -102.5625 93.3125 C-99.69399591 90.72384997 -96.8452335 88.11414854 -94 85.5 C-89.54935153 81.41082552 -85.06921917 77.35630916 -80.5703125 73.3203125 C-77.65571553 70.68920217 -74.76460776 68.03347525 -71.875 65.375 C-68.63786909 62.3977736 -65.38862144 59.44047034 -62.0625 56.5625 C-57.930891 52.98062691 -53.93070073 49.26162042 -49.92041016 45.54541016 C-45.82306071 41.75112961 -41.68589227 38.00453553 -37.52734375 34.27734375 C-34.66917797 31.70190225 -31.83289739 29.10314236 -29 26.5 C-25.35072829 23.14706883 -21.68830402 19.81001643 -18 16.5 C-14.12524203 13.02216845 -10.27536037 9.51841896 -6.4375 6 C-5.91220703 5.51853516 -5.38691406 5.03707031 -4.84570312 4.54101562 C-2.39021862 2.3048608 -2.39021862 2.3048608 0 0 Z " fill="black" transform="translate(737,360)"/>
        <path d="M0 0 C2.15677528 0.05527699 4.31368773 0.1054494 6.47070312 0.15039062 C11.71266889 0.27059738 16.9494317 0.45377081 22.1875 0.6875 C19.50574542 3.39604362 16.83611291 6.07705507 13.9453125 8.5625 C13.36193115 9.06595947 12.7785498 9.56941895 12.17749023 10.08813477 C11.56204346 10.61592529 10.94659668 11.14371582 10.3125 11.6875 C8.97259925 12.84238179 7.63275715 13.99733163 6.29296875 15.15234375 C5.61153809 15.73870605 4.93010742 16.32506836 4.22802734 16.92919922 C1.64301551 19.15667651 -0.93379725 21.39349852 -3.51025391 23.63085938 C-9.50238607 28.83376858 -15.51596874 34.01081208 -21.54541016 39.17041016 C-28.32802195 44.97836653 -35.06940949 50.83376094 -41.8125 56.6875 C-49.70396954 63.53815749 -57.60548305 70.37594449 -65.54541016 77.17041016 C-69.79285579 80.80750155 -74.0252333 84.46159663 -78.25 88.125 C-78.86319092 88.65641602 -79.47638184 89.18783203 -80.1081543 89.73535156 C-83.4182807 92.60559837 -86.72330401 95.48154941 -90.0234375 98.36328125 C-90.70994385 98.96148682 -91.3964502 99.55969238 -92.10375977 100.17602539 C-93.42608721 101.32841004 -94.74694968 102.48247842 -96.06616211 103.63842773 C-100.58744646 107.57497323 -100.58744646 107.57497323 -102.8125 108.6875 C-103.18723435 103.08723928 -103.45711392 97.49444567 -103.63647461 91.88452148 C-103.71129309 89.98348836 -103.81321243 88.08330045 -103.9440918 86.18530273 C-104.97112683 70.89254977 -104.97112683 70.89254977 -101.38043213 65.56121826 C-97.90387242 61.75641811 -93.92768234 58.76882219 -89.64720154 55.92582703 C-87.06117013 54.18039186 -84.69804885 52.19456543 -82.3125 50.1875 C-81.44238281 49.48238281 -80.57226562 48.77726562 -79.67578125 48.05078125 C-74.26850249 43.58774762 -69.010162 38.95025106 -63.72216797 34.34716797 C-47.32247057 20.09440104 -47.32247057 20.09440104 -39.69702148 14.12719727 C-36.75172995 11.74726413 -36.75172995 11.74726413 -34.27490234 8.87207031 C-24.42475242 -1.72784404 -13.65315301 -0.61139782 0 0 Z " fill="black" transform="translate(641.8125,285.3125)"/>
        <path d="M0 0 C4.01168634 13.17798959 5.45532983 27.02140363 0 40 C-11.34181037 60.65710776 -35.38169427 86.72644564 -57.62554932 95.41638184 C-71.9501682 99.31773726 -86.77872336 97.5246915 -101 94 C-100.22889893 93.22962402 -99.45779785 92.45924805 -98.66333008 91.66552734 C-96.89895103 89.89969267 -95.13999303 88.12842343 -93.38671875 86.3515625 C-88.6958759 81.61320026 -83.96923447 77.00633247 -78.89453125 72.67578125 C-76.134772 70.23467461 -73.58789024 67.597094 -71.00390625 64.97265625 C-68.41753849 62.42662171 -65.6846472 60.07978443 -62.93359375 57.71484375 C-61.04505403 56.03995701 -59.26844352 54.30052413 -57.5 52.5 C-55.10946833 50.06610268 -52.64953738 47.78644441 -50.0625 45.5625 C-47.25423653 43.14382221 -44.60029407 40.64100317 -42 38 C-38.7784145 34.72797872 -35.41407855 31.70683945 -31.93359375 28.71484375 C-30.04505403 27.03995701 -28.26844352 25.30052413 -26.5 23.5 C-24.10946833 21.06610268 -21.64953738 18.78644441 -19.0625 16.5625 C-16.2087826 14.10620552 -13.51726765 11.55753078 -10.875 8.875 C-2.12086576 0 -2.12086576 0 0 0 Z " fill="black" transform="translate(739,404)"/>
        <path d="M0 0 C0 15.51 0 31.02 0 47 C-15.51 47 -31.02 47 -47 47 C-40.24828558 39.12299985 -40.24828558 39.12299985 -36.6628418 35.53344727 C-35.8656926 34.7331459 -35.0685434 33.93284454 -34.24723816 33.10829163 C-33.40639175 32.26946945 -32.56554535 31.43064728 -31.69921875 30.56640625 C-30.82223831 29.68846909 -29.94525787 28.81053192 -29.04170227 27.9059906 C-27.1998471 26.0634582 -25.3567416 24.2221749 -23.51245117 22.38208008 C-21.61837191 20.49160203 -19.72569881 18.59985874 -17.83569336 16.70532227 C-15.10535829 13.96884577 -12.37162543 11.23581297 -9.63671875 8.50390625 C-8.78575119 7.65091446 -7.93478363 6.79792267 -7.05802917 5.91908264 C-6.27664078 5.14084641 -5.49525238 4.36261017 -4.69018555 3.56079102 C-3.99990768 2.87130875 -3.30962982 2.18182648 -2.59843445 1.47145081 C-1 0 -1 0 0 0 Z " fill="black" transform="translate(739,451)"/>
        <path d="M0 0 C5.61 0 11.22 0 17 0 C13.64745867 3.35254133 10.31008352 6.62181488 6.8125 9.8125 C5.52279297 10.99779297 5.52279297 10.99779297 4.20703125 12.20703125 C2 14 2 14 0 14 C0 9.38 0 4.76 0 0 Z " fill="black" transform="translate(539,286)"/>
      </g>
    </mask>
  </defs>

  <!-- Figura negra con los blancos recortados (transparentes) -->
  <g mask="url(#cutout)">
    <path d="M0 0 C141.57 0 283.14 0 429 0 C429 141.57 429 283.14 429 429 C189.33144009 430.16911493 189.33144009 430.16911493 106.60772705 430.12695312 C98.20011034 430.12370288 89.79249934 430.12805341 81.38488364 430.1321975 C70.70627616 430.13724025 60.02767571 430.13677601 49.34906769 430.13381577 C44.94555638 430.13271712 40.54205277 430.13361984 36.13854218 430.13629532 C31.12251418 430.13914828 26.10651171 430.13724769 21.09048653 430.13140106 C19.26531835 430.13007388 17.44014803 430.13046687 15.6149807 430.13266373 C13.14553258 430.13536816 10.67616871 430.13200722 8.20672607 430.12698364 C7.11932495 430.13032973 7.11932495 430.13032973 6.00995612 430.13374341 C1.11417313 430.11417313 1.11417313 430.11417313 0 429 C-0.09817438 426.72744982 -0.1237108 424.45176985 -0.12304783 422.17710018 C-0.12477845 421.08850239 -0.12477845 421.08850239 -0.12654402 419.97791273 C-0.12921635 417.51633496 -0.1246845 415.05482098 -0.12025452 412.59324646 C-0.12069149 410.82713811 -0.12156757 409.06102982 -0.12284851 407.29492188 C-0.12510401 402.40792574 -0.12106108 397.52095129 -0.11607273 392.63395791 C-0.11172597 387.29577487 -0.11316602 381.95759293 -0.11389065 376.61940861 C-0.11442372 366.24302647 -0.1097927 355.86665295 -0.10338932 345.49027303 C-0.09620784 333.49550831 -0.09539559 321.5007488 -0.09460449 309.50598145 C-0.08934761 277.81648626 -0.07538659 246.126993 -0.0625 214.4375 C-0.041875 143.673125 -0.02125 72.90875 0 0 Z " fill="#000000" transform="translate(315,74)"/>
  </g>
</svg>