<?xml version="1.0" encoding="UTF-8"?>
<!-- Fondo transparente; todos los trazos en negro con grosor moderado -->
<svg version="1.1" xmlns="http://www.w3.org/2000/svg" width="1152" height="720" viewBox="0 0 1152 720" style="background:none">
  <defs>
    <style><![CDATA[
      /* Convierte todas las formas en contorno negro con grosor moderado */
      path {
        fill: none;
        stroke: #000000;
        stroke-width: 3;
        stroke-linecap: round;
        stroke-linejoin: round;
        vector-effect: non-scaling-stroke; /* mantiene el grosor pese a transformaciones */
      }
    ]]></style>
  </defs>

  <!-- Eliminado el rectángulo de fondo blanco -->
  <!-- <path d="M0 0 C380.16 0 760.32 0 1152 0 C1152 237.6 1152 475.2 1152 720 C771.84 720 391.68 720 0 720 C0 482.4 0 244.8 0 0 Z " fill="#FFFFFF" transform="translate(0,0)"/> -->

  <path d="M0 0 C195.69 0 391.38 0 593 0 C593.78196948 3.1278779 594.12373727 5.16054831 594.11778647 8.27347922 C594.1190074 9.55332632 594.1190074 9.55332632 594.120253 10.85902892 C594.11602156 11.79352084 594.11179012 12.72801275 594.10743046 13.6908226 C594.10662759 15.18997063 594.10662759 15.18997063 594.10580849 16.71940447 C594.10276043 20.09353974 594.09248737 23.46761514 594.08229065 26.84173584 C594.07861013 29.2688033 594.07537188 31.69587146 594.07254028 34.12294006 C594.06533745 39.4205008 594.05498014 44.7180417 594.0418998 50.01559019 C594.02221718 57.99523124 594.00839039 65.97487531 593.99568415 73.95453014 C593.97423376 87.32599855 593.94821048 100.69745422 593.91941833 114.06890869 C593.88050189 132.14896058 593.84785492 150.2290146 593.81628418 168.30908203 C593.73717276 211.78939834 593.64929636 255.26969835 593.5625 298.75 C593.376875 395.8525 593.19125 492.955 593 593 C397.31 593 201.62 593 0 593 C0 397.31 0 201.62 0 0 Z " transform="translate(294,79)"/>
  <path d="M0 0 C195.69 0 391.38 0 593 0 C593.78196948 3.1278779 594.12373727 5.16054831 594.11778647 8.27347922 C594.1190074 9.55332632 594.1190074 9.55332632 594.120253 10.85902892 C594.11602156 11.79352084 594.11179012 12.72801275 594.10743046 13.6908226 C594.10662759 15.18997063 594.10662759 15.18997063 594.10580849 16.71940447 C594.10276043 20.09353974 594.09248737 23.46761514 594.08229065 26.84173584 C594.07861013 29.2688033 594.07537188 31.69587146 594.07254028 34.12294006 C594.06533745 39.4205008 594.05498014 44.7180417 594.0418998 50.01559019 C594.02221718 57.99523124 594.00839039 65.97487531 593.99568415 73.95453014 C593.97423376 87.32599855 593.94821048 100.69745422 593.91941833 114.06890869 C593.88050189 132.14896058 593.84785492 150.2290146 593.81628418 168.30908203 C593.73717276 211.78939834 593.64929636 255.26969835 593.5625 298.75 C593.376875 395.8525 593.19125 492.955 593 593 C397.31 593 201.62 593 0 593 C0 397.31 0 201.62 0 0 Z M7 5 C8.38134906 9.14404717 9.66575296 12.57183724 11.6015625 16.3984375 C12.09140625 17.37167969 12.58125 18.34492187 13.0859375 19.34765625 C13.59382813 20.34667969 14.10171875 21.34570312 14.625 22.375 C15.140625 23.39722656 15.65625 24.41945313 16.1875 25.47265625 C17.45471873 27.98362669 18.72564556 30.49264561 20 33 C17.65356445 32.75219727 17.65356445 32.75219727 15 32 C13.60620117 30.23413086 13.60620117 30.23413086 12.54296875 27.96484375 C12.15302734 27.15595703 11.76308594 26.34707031 11.36132812 25.51367188 C10.7802832 24.2384668 10.7802832 24.2384668 10.1875 22.9375 C9.78080078 22.08349609 9.37410156 21.22949219 8.95507812 20.34960938 C7.95341891 18.24023292 6.96946033 16.12431925 6 14 C5.67 14 5.34 14 5 14 C5 203.42 5 392.84 5 588 C197.39 588 389.78 588 588 588 C588 399.24 588 210.48 588 16 C585.74384289 19.00820948 584.15076514 21.46078751 582.51953125 24.765625 C582.07802734 25.65507813 581.63652344 26.54453125 581.18164062 27.4609375 C580.72982422 28.38132812 580.27800781 29.30171875 579.8125 30.25 C579.34908203 31.18585938 578.88566406 32.12171875 578.40820312 33.0859375 C577.26849316 35.3888566 576.13256871 37.69356274 575 40 C573.35 40 571.7 40 570 40 C570.51498047 39.01080566 571.02996094 38.02161133 571.56054688 37.00244141 C573.46553028 33.34066377 575.36516883 29.67613605 577.26318359 26.01074219 C578.08626511 24.42306895 578.91080488 22.83615083 579.73681641 21.25 C580.92211639 18.97331336 582.1021891 16.69398514 583.28125 14.4140625 C583.65310425 13.70255035 584.0249585 12.99103821 584.40808105 12.25796509 C586.33697957 8.80934132 586.33697957 8.80934132 587 5 C395.6 5 204.2 5 7 5 Z " transform="translate(294,79)"/>
  <path d="M0 0 C0.52843506 1.06210693 1.05687012 2.12421387 1.60131836 3.21850586 C3.60648188 7.24725369 5.61450379 11.27457162 7.62329102 15.30151367 C8.4840691 17.02802695 9.34412265 18.7549017 10.20336914 20.48217773 C15.11436514 30.35302107 20.08449847 40.18019926 25.31175232 49.88816833 C28 54.89955244 28 54.89955244 28 56 C26.02 56 24.04 56 22 56 C15.83336395 44.51520853 9.89385744 32.91861731 4.04586792 21.26898193 C3.26412814 19.71234849 2.48102211 18.15640044 1.69656372 16.60113525 C0.5826136 14.39109535 -0.52588065 12.17840553 -1.6328125 9.96484375 C-1.97297897 9.29165604 -2.31314545 8.61846832 -2.66362 7.92488098 C-5 3.22911767 -5 3.22911767 -5 1 C-3 0 -3 0 0 0 Z " transform="translate(382,244)"/>
  <path d="M0 0 C1.98 0 3.96 0 6 0 C1.02896955 10.67850987 -4.08061146 21.28620468 -9.32733154 31.83190918 C-9.93683919 33.05769812 -10.54497948 34.28416802 -11.15167236 35.51135254 C-17.95165495 49.25373553 -17.95165495 49.25373553 -22 55 C-24.8125 55.5 -24.8125 55.5 -27 55 C-25.29763493 49.01943012 -22.42893626 43.70260731 -19.58984375 38.203125 C-19.06234024 37.17314392 -18.53483673 36.14316284 -17.99134827 35.08197021 C-16.31069599 31.80259562 -14.62420243 28.5262662 -12.9375 25.25 C-11.79843789 23.03014811 -10.65976165 20.81009818 -9.52148438 18.58984375 C-7.02388477 13.71952568 -4.52256008 8.85114164 -2.01792908 3.98443604 C-1.33843874 2.65978077 -0.66579557 1.33159114 0 0 Z " transform="translate(801,242)"/>
  <path d="M0 0 C1.98 0 3.96 0 6 0 C6.37584229 0.75953979 6.37584229 0.75953979 6.75927734 1.53442383 C11.91624325 11.94073667 17.14965269 22.29734692 22.59912109 32.55395508 C30 46.49253346 30 46.49253346 30 49 C28.35 49 26.7 49 25 49 C18.5710806 37.83637054 12.62977241 26.45935267 6.875 14.9375 C6.53395233 14.25612976 6.19290466 13.57475952 5.84152222 12.8727417 C0 1.18829031 0 1.18829031 0 0 Z " transform="translate(343,179)"/>
  <path d="M0 0 C1.4540625 0.0309375 1.4540625 0.0309375 2.9375 0.0625 C2.45788818 1.02099854 1.97827637 1.97949707 1.48413086 2.96704102 C-1.7691473 9.47034647 -5.02051128 15.97457238 -8.2605896 22.48446655 C-9.65496607 25.28568487 -11.05092641 28.08611251 -12.44702148 30.88647461 C-13.16221844 32.32200906 -13.8767122 33.75789401 -14.59057617 35.1940918 C-15.64056839 37.30610175 -16.69306951 39.41684425 -17.74609375 41.52734375 C-18.0658165 42.17195053 -18.38553925 42.81655731 -18.71495056 43.48069763 C-20.94863049 47.94863049 -20.94863049 47.94863049 -22.0625 49.0625 C-23.72867115 49.10313832 -25.39638095 49.105221 -27.0625 49.0625 C-25.42435756 43.48917412 -22.9130799 38.49121974 -20.30859375 33.32421875 C-19.84767838 32.40284622 -19.386763 31.48147369 -18.91188049 30.53218079 C-17.94127908 28.59398897 -16.96874161 26.65676561 -15.99438477 24.72045898 C-14.49747421 21.74497937 -13.00705804 18.76631447 -11.51757812 15.78710938 C-10.57329526 13.903456 -9.62864667 12.0199859 -8.68359375 10.13671875 C-8.23567978 9.24200363 -7.78776581 8.34728851 -7.32627869 7.42546082 C-6.91237381 6.60403091 -6.49846893 5.78260101 -6.07202148 4.9362793 C-5.70721176 4.21047165 -5.34240204 3.484664 -4.96653748 2.73686218 C-3.44752749 -0.07648676 -3.47895656 0.07099911 0 0 Z " transform="translate(739.0625,370.9375)"/>
  <path d="M0 0 C2.12689278 2.70664905 3.8190857 5.38576513 5.36010742 8.46142578 C5.80033737 9.33558136 6.24056732 10.20973694 6.69413757 11.11038208 C7.39274651 12.51367264 7.39274651 12.51367264 8.10546875 13.9453125 C8.5895369 14.91153534 9.07360504 15.87775818 9.57234192 16.8732605 C10.59210663 18.91143115 11.60985859 20.95060991 12.62573242 22.99072266 C14.18657419 26.12314202 15.75592829 29.25119128 17.32617188 32.37890625 C18.31561753 34.35911857 19.30456709 36.33957887 20.29296875 38.3203125 C20.76478073 39.259888 21.23659271 40.1994635 21.72270203 41.16751099 C22.15347549 42.03536224 22.58424896 42.9032135 23.02807617 43.79736328 C23.40985519 44.56251251 23.79163422 45.32766174 24.1849823 46.11599731 C25 48 25 48 25 50 C23.35 50 21.7 50 20 50 C14.30697874 39.34854087 8.75270029 28.63018946 3.33062744 17.83850098 C2.69311563 16.57031788 2.05423774 15.30282059 1.41400146 14.03601074 C0.50884794 12.24353576 -0.39023741 10.44800043 -1.2890625 8.65234375 C-1.81193848 7.61070068 -2.33481445 6.56905762 -2.87353516 5.49584961 C-4 3 -4 3 -4 1 C-2.68 0.67 -1.36 0.34 0 0 Z " transform="translate(417,315)"/>
  <path d="M0 0 C3.07184758 3.70172169 5.06821752 7.84044699 7.1875 12.125 C7.55552734 12.85332031 7.92355469 13.58164062 8.30273438 14.33203125 C11 19.74657931 11 19.74657931 11 22 C11.66 22 12.32 22 13 22 C13.26554688 21.14148438 13.53109375 20.28296875 13.8046875 19.3984375 C15.01023801 15.97089192 16.47244386 12.85826202 18.125 9.625 C18.66382813 8.56539062 19.20265625 7.50578125 19.7578125 6.4140625 C20.16773438 5.61742187 20.57765625 4.82078125 21 4 C21.33 4.99 21.66 5.98 22 7 C22.99 7 23.98 7 25 7 C23.44347945 12.3537465 21.0182491 17.00150947 18.375 21.875 C17.95476563 22.65875 17.53453125 23.4425 17.1015625 24.25 C16.0718978 26.16892057 15.03652433 28.08477603 14 30 C12.68 30 11.36 30 10 30 C8.34703881 26.92043712 6.70389829 23.83573921 5.0625 20.75 C4.35963867 19.44095703 4.35963867 19.44095703 3.64257812 18.10546875 C3.19462891 17.26113281 2.74667969 16.41679688 2.28515625 15.546875 C1.66459351 14.38430176 1.66459351 14.38430176 1.03149414 13.19824219 C-1.20081538 8.44091321 -0.89825396 5.18991175 0 0 Z " transform="translate(579,635)"/>
  <path d="M0 0 C1.98 0 3.96 0 6 0 C13 14 20 28 27 42 C25.02 42 23.04 42 21 42 C15.5079875 31.68311751 10.11025229 21.3248832 4.875 10.875 C4.38990967 9.90933105 3.90481934 8.94366211 3.4050293 7.94873047 C2.73661011 6.6089917 2.73661011 6.6089917 2.0546875 5.2421875 C1.45889893 4.04891846 1.45889893 4.04891846 0.85107422 2.83154297 C0 1 0 1 0 0 Z " transform="translate(502,493)"/>
  <path d="M0 0 C1.98 0 3.96 0 6 0 C1.11974835 10.43530353 -3.8560534 20.81676494 -9 31.125 C-9.48057861 32.09066895 -9.96115723 33.05633789 -10.45629883 34.05126953 C-10.90384521 34.94442871 -11.3513916 35.83758789 -11.8125 36.7578125 C-12.21082031 37.5533252 -12.60914063 38.34883789 -13.01953125 39.16845703 C-14 41 -14 41 -15 42 C-16.66617115 42.04063832 -18.33388095 42.042721 -20 42 C-18.46258621 36.87764898 -16.27509491 32.29004831 -13.8671875 27.5390625 C-13.47048859 26.74849457 -13.07378967 25.95792664 -12.66506958 25.1434021 C-11.40547789 22.63535401 -10.14033237 20.13015594 -8.875 17.625 C-8.01655799 15.91815433 -7.15848113 14.21112497 -6.30078125 12.50390625 C-4.20474165 8.33379921 -2.10371882 4.16623797 0 0 Z " transform="translate(765,313)"/>
  <path d="M0 0 C3.00950953 3.66127313 5.04645871 7.71065726 7.1953125 11.90625 C7.58822479 12.66796509 7.98113708 13.42968018 8.38595581 14.21447754 C9.2130919 15.82058221 10.03834037 17.42766023 10.86181641 19.03564453 C12.12206686 21.49427772 13.39069949 23.94845385 14.66015625 26.40234375 C15.46405058 27.96588428 16.26745279 29.52967795 17.0703125 31.09375 C17.44946808 31.82613892 17.82862366 32.55852783 18.2192688 33.31311035 C19.85371478 36.51806104 21.22332545 39.48905674 22 43 C20.35 43 18.7 43 17 43 C9.92004636 30.52723062 3.30816989 17.88002533 -3 5 C-2.01 4.67 -1.02 4.34 0 4 C0 2.68 0 1.36 0 0 Z " transform="translate(477,434)"/>
  <path d="M0 0 C1.98 0 3.96 0 6 0 C11.30247378 9.97316345 16.54404191 19.97435453 21.625 30.0625 C22.06247559 30.92456055 22.49995117 31.78662109 22.95068359 32.67480469 C23.35109863 33.4743457 23.75151367 34.27388672 24.1640625 35.09765625 C24.51936035 35.80414307 24.8746582 36.51062988 25.24072266 37.23852539 C26 39 26 39 26 41 C24.35 41 22.7 41 21 41 C18.16524526 35.61950023 15.33299638 30.23769074 12.50244141 24.85498047 C10.96573331 21.93488548 9.42625126 19.01626296 7.88671875 16.09765625 C6.88271244 14.19015683 5.87880374 12.28260603 4.875 10.375 C4.38990967 9.4569458 3.90481934 8.5388916 3.4050293 7.59301758 C2.9594165 6.74505615 2.51380371 5.89709473 2.0546875 5.0234375 C1.65749512 4.26981934 1.26030273 3.51620117 0.85107422 2.73974609 C0 1 0 1 0 0 Z " transform="translate(445,381)"/>
  <path d="M0 0 C1.2065625 0.0309375 1.2065625 0.0309375 2.4375 0.0625 C0.9364989 5.02734978 -1.13990368 9.47933691 -3.4765625 14.0859375 C-3.85106537 14.83211334 -4.22556824 15.57828918 -4.61141968 16.34707642 C-5.79967966 18.71246797 -6.99349382 21.0750047 -8.1875 23.4375 C-8.99776526 25.04799127 -9.80766498 26.65866651 -10.6171875 28.26953125 C-12.59473454 32.20266234 -14.57726516 36.13324408 -16.5625 40.0625 C-18.5425 40.0625 -20.5225 40.0625 -22.5625 40.0625 C-17.83488048 29.96777619 -13.03900676 19.91228459 -8.0625 9.9375 C-7.62953613 9.06706055 -7.19657227 8.19662109 -6.75048828 7.29980469 C-6.34813965 6.49704102 -5.94579102 5.69427734 -5.53125 4.8671875 C-5.17482422 4.15546387 -4.81839844 3.44374023 -4.45117188 2.71044922 C-3.02938148 0.07388735 -3.02938148 0.07388735 0 0 Z " transform="translate(651.5625,542.9375)"/>
  <path d="M0 0 C1.98 0 3.96 0 6 0 C0.03204198 12.87291427 -6.29308227 25.49628907 -13 38 C-14.98 38 -16.96 38 -19 38 C-13.03204198 25.12708573 -6.70691773 12.50371093 0 0 Z " transform="translate(703,436)"/>
  <path d="M0 0 C1.65 0 3.3 0 5 0 C3.54618107 4.7749875 1.55806494 9.1476652 -0.6953125 13.5859375 C-1.22377274 14.63861313 -1.22377274 14.63861313 -1.76290894 15.71255493 C-2.87983696 17.93529034 -4.00231954 20.15516549 -5.125 22.375 C-5.88708856 23.88913684 -6.64881112 25.40345796 -7.41015625 26.91796875 C-9.26921035 30.61412431 -11.13324843 34.3077265 -13 38 C-14.98 38 -16.96 38 -19 38 C-13.03204198 25.12708573 -6.70691773 12.50371093 0 0 Z " transform="translate(855,136)"/>
  <path d="M0 0 C1.2065625 0.0309375 1.2065625 0.0309375 2.4375 0.0625 C0.98368107 4.8374875 -1.00443506 9.2101652 -3.2578125 13.6484375 C-3.78627274 14.70111313 -3.78627274 14.70111313 -4.32540894 15.77505493 C-5.44233696 17.99779034 -6.56481954 20.21766549 -7.6875 22.4375 C-8.44958856 23.95163684 -9.21131112 25.46595796 -9.97265625 26.98046875 C-11.83171035 30.67662431 -13.69574843 34.3702265 -15.5625 38.0625 C-17.5425 37.7325 -19.5225 37.4025 -21.5625 37.0625 C-21.10101562 36.13953125 -20.63953125 35.2165625 -20.1640625 34.265625 C-19.85412354 33.6456665 -19.54418457 33.02570801 -19.22485352 32.38696289 C-18.52508059 30.98758173 -17.825042 29.58833339 -17.12475586 28.18920898 C-15.02350607 23.98991324 -12.92826414 19.78772375 -10.83984375 15.58203125 C-10.38851074 14.67485352 -9.93717773 13.76767578 -9.47216797 12.83300781 C-8.58027877 11.04017799 -7.68995624 9.24656786 -6.80126953 7.45214844 C-6.39376465 6.63391602 -5.98625977 5.81568359 -5.56640625 4.97265625 C-5.20361572 4.24183838 -4.8408252 3.51102051 -4.46704102 2.75805664 C-3.03517293 0.07402861 -3.03517293 0.07402861 0 0 Z " transform="translate(678.5625,489.9375)"/>
  <path d="M0 0 C1.98 0 3.96 0 6 0 C4.61001618 4.5495489 2.76102455 8.69307561 0.55859375 12.89453125 C0.23085464 13.52735519 -0.09688446 14.16017914 -0.43455505 14.81217957 C-1.12252431 16.13847018 -1.81258362 17.46367856 -2.50463867 18.7878418 C-3.56722938 20.82155163 -4.6229821 22.85870004 -5.67773438 24.89648438 C-6.34856413 26.18770488 -7.01977446 27.47872775 -7.69140625 28.76953125 C-8.00807755 29.37988724 -8.32474884 29.99024323 -8.65101624 30.61909485 C-10.88356594 34.88356594 -10.88356594 34.88356594 -12 36 C-13.66617115 36.04063832 -15.33388095 36.042721 -17 36 C-15.58503846 31.3843831 -13.70520721 27.14423157 -11.5234375 22.8515625 C-11.19332672 22.19417084 -10.86321594 21.53677917 -10.52310181 20.85946655 C-9.47750603 18.77938683 -8.4263553 16.70217356 -7.375 14.625 C-6.6610881 13.20721762 -5.9475427 11.78925062 -5.234375 10.37109375 C-3.49381428 6.91191323 -1.74826918 3.45529063 0 0 Z " transform="translate(827,190)"/>
  <path d="M0 0 C1.65 0 3.3 0 5 0 C9.94572393 9.31749966 14.87233703 18.64470008 19.625 28.0625 C19.96724609 28.73410156 20.30949219 29.40570312 20.66210938 30.09765625 C23 34.76371654 23 34.76371654 23 37 C21.35 37 19.7 37 18 37 C13.05427607 27.68250034 8.12766297 18.35529992 3.375 8.9375 C3.03275391 8.26589844 2.69050781 7.59429688 2.33789062 6.90234375 C0 2.23628346 0 2.23628346 0 0 Z " transform="translate(532,551)"/>
  <path d="M0 0 C1.98 0 3.96 0 6 0 C15.59011433 18.08918993 15.59011433 18.08918993 20.125 27.0625 C20.68445313 28.16722656 21.24390625 29.27195313 21.8203125 30.41015625 C23 33 23 33 23 35 C20.525 35.495 20.525 35.495 18 36 C12 24 6 12 0 0 Z " transform="translate(317,128)"/>
  <path d="M0 0 C0.721875 0.165 1.44375 0.33 2.1875 0.5 C0.49666337 6.55034312 -2.4953924 11.86414871 -5.4375 17.375 C-6.2109375 18.83679688 -6.2109375 18.83679688 -7 20.328125 C-8.26678286 22.72093706 -9.53771318 25.11144536 -10.8125 27.5 C-12.7925 27.5 -14.7725 27.5 -16.8125 27.5 C-15.42522336 24.49597239 -14.0261012 21.49760162 -12.625 18.5 C-12.23763672 17.66082031 -11.85027344 16.82164062 -11.45117188 15.95703125 C-4.32832835 0.7694806 -4.32832835 0.7694806 0 0 Z " transform="translate(623.8125,598.5)"/>
  <path d="M0 0 C1.98 0 3.96 0 6 0 C7.83663263 3.47743476 9.66875123 6.95722746 11.5 10.4375 C12.02464844 11.43072266 12.54929687 12.42394531 13.08984375 13.44726562 C13.58613281 14.39150391 14.08242188 15.33574219 14.59375 16.30859375 C15.05458984 17.18314209 15.51542969 18.05769043 15.99023438 18.95874023 C17 21 17 21 17 22 C15.02 22 13.04 22 11 22 C9.35045833 18.89779023 7.7060119 15.79290789 6.0625 12.6875 C5.59392578 11.80642578 5.12535156 10.92535156 4.64257812 10.01757812 C3.9706543 8.74624023 3.9706543 8.74624023 3.28515625 7.44921875 C2.87144775 6.66893311 2.45773926 5.88864746 2.03149414 5.0847168 C1 3 1 3 0 0 Z " transform="translate(558,604)"/>
</svg>